# xmcd CD Database Entry
#
# Track frame offsets:
# 150
# 20309
# 34397
# 48489
# 71472
# 86934
# 104392
# 117442
# 136547
# 156937
# 173162
# 186629
# 214682
#
# Disc length: 3039 seconds
#
# Revision: 1
# Processed by: cddbd v1.4PL0 Copyright (c) Steve Scherf et al.
# Submitted via: tcd 2.0b
#
DISCID=b80bdd0d
DTITLE=The Cranberries - No Need To Argue
DYEAR=1900
DGENRE=
TTITLE0=Ode To My Family
TTITLE1=I Can't Be With You
TTITLE2=Twenty One
TTITLE3=Zombie
TTITLE4=Empty
TTITLE5=Everything I Said
TTITLE6=The Icicle Melts
TTITLE7=Dissapointment
TTITLE8=Ridiculous Thoughts
TTITLE9=Dreaming My Dreams
TTITLE10=Yeat's Grave
TTITLE11=Daffodil Lamnet
TTITLE12=No Need To Argue
EXTD=
EXTT0=
EXTT1=
EXTT2=
EXTT3=
EXTT4=
EXTT5=
EXTT6=
EXTT7=
EXTT8=
EXTT9=
EXTT10=
EXTT11=
EXTT12=
PLAYORDER=
